<?xml version="1.0" encoding="UTF-8"?><svg xmlns:svg="http://www.w3.org/2000/svg" xmlns="http://www.w3.org/2000/svg" xmlns:xlink="http://www.w3.org/1999/xlink" version="1.0" width="641" height="116" viewBox="0 0 641 116" ><text stroke="#ffffff" x="60" y="8" font-family="Courier New, monospace" font-size="11" dominant-baseline="middle" text-anchor="middle" >0</text><text stroke="#ffffff" x="100" y="8" font-family="Courier New, monospace" font-size="11" dominant-baseline="middle" text-anchor="middle" >1</text><text stroke="#ffffff" x="140" y="8" font-family="Courier New, monospace" font-size="11" dominant-baseline="middle" text-anchor="middle" >2</text><text stroke="#ffffff" x="180" y="8" font-family="Courier New, monospace" font-size="11" dominant-baseline="middle" text-anchor="middle" >3</text><text stroke="#ffffff" x="220" y="8" font-family="Courier New, monospace" font-size="11" dominant-baseline="middle" text-anchor="middle" >4</text><text stroke="#ffffff" x="260" y="8" font-family="Courier New, monospace" font-size="11" dominant-baseline="middle" text-anchor="middle" >5</text><text stroke="#ffffff" x="300" y="8" font-family="Courier New, monospace" font-size="11" dominant-baseline="middle" text-anchor="middle" >6</text><text stroke="#ffffff" x="340" y="8" font-family="Courier New, monospace" font-size="11" dominant-baseline="middle" text-anchor="middle" >7</text><text stroke="#ffffff" x="380" y="8" font-family="Courier New, monospace" font-size="11" dominant-baseline="middle" text-anchor="middle" >8</text><text stroke="#ffffff" x="420" y="8" font-family="Courier New, monospace" font-size="11" dominant-baseline="middle" text-anchor="middle" >9</text><text stroke="#ffffff" x="460" y="8" font-family="Courier New, monospace" font-size="11" dominant-baseline="middle" text-anchor="middle" >a</text><text stroke="#ffffff" x="500" y="8" font-family="Courier New, monospace" font-size="11" dominant-baseline="middle" text-anchor="middle" >b</text><text stroke="#ffffff" x="540" y="8" font-family="Courier New, monospace" font-size="11" dominant-baseline="middle" text-anchor="middle" >c</text><text stroke="#ffffff" x="580" y="8" font-family="Courier New, monospace" font-size="11" dominant-baseline="middle" text-anchor="middle" >d</text><text stroke="#ffffff" x="620" y="8" font-family="Courier New, monospace" font-size="11" dominant-baseline="middle" text-anchor="middle" >e</text><rect x="40" y="15" height="70" width="40" fill="#e4b5f7" /><line x1="40" y1="15" x2="80" y2="15" stroke="#000000" stroke-width="1" /><line x1="40" y1="85" x2="80" y2="85" stroke="#000000" stroke-width="1" /><line x1="80" y1="15" x2="80" y2="85" stroke="#000000" stroke-width="1" /><line x1="40" y1="15" x2="40" y2="85" stroke="#000000" stroke-width="1" /><text font-size="18" font-family="Palatino, Georgia, Times New Roman, serif" writing-mode="vertical-rl" x="60" y="51" text-anchor="middle" dominant-baseline="middle" >Flag</text><rect x="80" y="15" height="70" width="40" fill="#a0fafa" /><line x1="80" y1="15" x2="120" y2="15" stroke="#000000" stroke-width="1" /><line x1="80" y1="85" x2="120" y2="85" stroke="#000000" stroke-width="1" /><line x1="120" y1="15" x2="120" y2="85" stroke="#000000" stroke-width="1" /><line x1="80" y1="15" x2="80" y2="85" stroke="#000000" stroke-width="1" /><text font-size="11" font-family="Palatino, Georgia, Times New Roman, serif" writing-mode="vertical-rl" x="100" y="51" text-anchor="middle" dominant-baseline="middle" >Command</text><rect x="120" y="15" height="70" width="320" fill="#ffffa0" /><line x1="120" y1="15" x2="440" y2="15" stroke="#000000" stroke-width="1" /><line x1="120" y1="85" x2="440" y2="85" stroke="#000000" stroke-width="1" /><line x1="440" y1="15" x2="440" y2="85" stroke="#000000" stroke-width="1" /><line x1="120" y1="15" x2="120" y2="85" stroke="#000000" stroke-width="1" /><text font-size="18" font-family="Palatino, Georgia, Times New Roman, serif" font-style="italic" x="280" y="51" text-anchor="middle" dominant-baseline="middle" >Address</text><rect x="440" y="15" height="70" width="40" fill="#ffb0a0" /><line x1="440" y1="15" x2="480" y2="15" stroke="#000000" stroke-width="1" /><line x1="440" y1="85" x2="480" y2="85" stroke="#000000" stroke-width="1" /><line x1="480" y1="15" x2="480" y2="85" stroke="#000000" stroke-width="1" /><line x1="440" y1="15" x2="440" y2="85" stroke="#000000" stroke-width="1" /><text font-size="18" font-family="Palatino, Georgia, Times New Roman, serif" writing-mode="vertical-rl" x="460" y="51" text-anchor="middle" dominant-baseline="middle" >Block</text><rect x="480" y="15" height="70" width="160" fill="#a0ffa0" /><line x1="480" y1="15" x2="640" y2="15" stroke="#000000" stroke-width="1" /><line x1="480" y1="85" x2="640" y2="85" stroke="#000000" stroke-width="1" /><line x1="640" y1="15" x2="640" y2="85" stroke="#000000" stroke-width="1" /><line x1="480" y1="15" x2="480" y2="85" stroke="#000000" stroke-width="1" /><text font-size="18" font-family="Palatino, Georgia, Times New Roman, serif" x="560" y="51" text-anchor="middle" dominant-baseline="middle" >Data</text><text font-size="11" font-family="Courier New, monospace" font-style="normal" dominant-baseline="middle" x="35" y="50" text-anchor="end" >00</text><text font-size="11" font-family="Courier New, monospace" font-style="normal" dominant-baseline="middle" x="35" y="100" text-anchor="end" >0f</text><rect x="40" y="85" height="30" width="40" fill="#e4b5f7" /><line x1="40" y1="85" x2="80" y2="85" stroke="#000000" stroke-width="1" /><line x1="40" y1="115" x2="80" y2="115" stroke="#000000" stroke-width="1" /><line x1="80" y1="85" x2="80" y2="115" stroke="#000000" stroke-width="1" /><line x1="40" y1="85" x2="40" y2="115" stroke="#000000" stroke-width="1" /><text font-size="18" font-family="Courier New, monospace" x="60" y="101" text-anchor="middle" dominant-baseline="middle" >61</text><rect x="80" y="85" height="30" width="40" fill="#a0fafa" /><line x1="80" y1="85" x2="120" y2="85" stroke="#000000" stroke-width="1" /><line x1="80" y1="115" x2="120" y2="115" stroke="#000000" stroke-width="1" /><line x1="120" y1="85" x2="120" y2="115" stroke="#000000" stroke-width="1" /><line x1="80" y1="85" x2="80" y2="115" stroke="#000000" stroke-width="1" /><text font-size="18" font-family="Courier New, monospace" x="100" y="101" text-anchor="middle" dominant-baseline="middle" >21</text><rect x="120" y="85" height="30" width="40" fill="#ffffa0" /><line x1="120" y1="85" x2="160" y2="85" stroke="#000000" stroke-width="1" /><line x1="120" y1="115" x2="160" y2="115" stroke="#000000" stroke-width="1" /><line x1="160" y1="85" x2="160" y2="115" stroke="#000000" stroke-width="1" /><line x1="120" y1="85" x2="120" y2="115" stroke="#000000" stroke-width="1" /><text font-size="18" font-family="Courier New, monospace" x="140" y="101" text-anchor="middle" dominant-baseline="middle" >a7</text><rect x="160" y="85" height="30" width="40" fill="#ffffa0" /><line x1="160" y1="85" x2="200" y2="85" stroke="#000000" stroke-width="1" /><line x1="160" y1="115" x2="200" y2="115" stroke="#000000" stroke-width="1" /><line x1="200" y1="85" x2="200" y2="115" stroke="#000000" stroke-width="1" /><line x1="160" y1="85" x2="160" y2="115" stroke="#000000" stroke-width="1" /><text font-size="18" font-family="Courier New, monospace" x="180" y="101" text-anchor="middle" dominant-baseline="middle" >3e</text><rect x="200" y="85" height="30" width="40" fill="#ffffa0" /><line x1="200" y1="85" x2="240" y2="85" stroke="#000000" stroke-width="1" /><line x1="200" y1="115" x2="240" y2="115" stroke="#000000" stroke-width="1" /><line x1="240" y1="85" x2="240" y2="115" stroke="#000000" stroke-width="1" /><line x1="200" y1="85" x2="200" y2="115" stroke="#000000" stroke-width="1" /><text font-size="18" font-family="Courier New, monospace" x="220" y="101" text-anchor="middle" dominant-baseline="middle" >ff</text><rect x="240" y="85" height="30" width="40" fill="#ffffa0" /><line x1="240" y1="85" x2="280" y2="85" stroke="#000000" stroke-width="1" /><line x1="240" y1="115" x2="280" y2="115" stroke="#000000" stroke-width="1" /><line x1="280" y1="85" x2="280" y2="115" stroke="#000000" stroke-width="1" /><line x1="240" y1="85" x2="240" y2="115" stroke="#000000" stroke-width="1" /><text font-size="18" font-family="Courier New, monospace" x="260" y="101" text-anchor="middle" dominant-baseline="middle" >58</text><rect x="280" y="85" height="30" width="40" fill="#ffffa0" /><line x1="280" y1="85" x2="320" y2="85" stroke="#000000" stroke-width="1" /><line x1="280" y1="115" x2="320" y2="115" stroke="#000000" stroke-width="1" /><line x1="320" y1="85" x2="320" y2="115" stroke="#000000" stroke-width="1" /><line x1="280" y1="85" x2="280" y2="115" stroke="#000000" stroke-width="1" /><text font-size="18" font-family="Courier New, monospace" x="300" y="101" text-anchor="middle" dominant-baseline="middle" >21</text><rect x="320" y="85" height="30" width="40" fill="#ffffa0" /><line x1="320" y1="85" x2="360" y2="85" stroke="#000000" stroke-width="1" /><line x1="320" y1="115" x2="360" y2="115" stroke="#000000" stroke-width="1" /><line x1="360" y1="85" x2="360" y2="115" stroke="#000000" stroke-width="1" /><line x1="320" y1="85" x2="320" y2="115" stroke="#000000" stroke-width="1" /><text font-size="18" font-family="Courier New, monospace" x="340" y="101" text-anchor="middle" dominant-baseline="middle" >32</text><rect x="360" y="85" height="30" width="40" fill="#ffffa0" /><line x1="360" y1="85" x2="400" y2="85" stroke="#000000" stroke-width="1" /><line x1="360" y1="115" x2="400" y2="115" stroke="#000000" stroke-width="1" /><line x1="400" y1="85" x2="400" y2="115" stroke="#000000" stroke-width="1" /><line x1="360" y1="85" x2="360" y2="115" stroke="#000000" stroke-width="1" /><text font-size="18" font-family="Courier New, monospace" x="380" y="101" text-anchor="middle" dominant-baseline="middle" >10</text><rect x="400" y="85" height="30" width="40" fill="#ffffa0" /><line x1="400" y1="85" x2="440" y2="85" stroke="#000000" stroke-width="1" /><line x1="400" y1="115" x2="440" y2="115" stroke="#000000" stroke-width="1" /><line x1="440" y1="85" x2="440" y2="115" stroke="#000000" stroke-width="1" /><line x1="400" y1="85" x2="400" y2="115" stroke="#000000" stroke-width="1" /><text font-size="18" font-family="Courier New, monospace" x="420" y="101" text-anchor="middle" dominant-baseline="middle" >fe</text><rect x="440" y="85" height="30" width="40" fill="#ffb0a0" /><line x1="440" y1="85" x2="480" y2="85" stroke="#000000" stroke-width="1" /><line x1="440" y1="115" x2="480" y2="115" stroke="#000000" stroke-width="1" /><line x1="480" y1="85" x2="480" y2="115" stroke="#000000" stroke-width="1" /><line x1="440" y1="85" x2="440" y2="115" stroke="#000000" stroke-width="1" /><text font-size="18" font-family="Courier New, monospace" x="460" y="101" text-anchor="middle" dominant-baseline="middle" >05</text><rect x="480" y="85" height="30" width="40" fill="#a0ffa0" /><line x1="480" y1="85" x2="520" y2="85" stroke="#000000" stroke-width="1" /><line x1="480" y1="115" x2="520" y2="115" stroke="#000000" stroke-width="1" /><line x1="520" y1="85" x2="520" y2="115" stroke="#000000" stroke-width="1" /><line x1="480" y1="85" x2="480" y2="115" stroke="#000000" stroke-width="1" /><text font-size="18" font-family="Courier New, monospace" x="500" y="101" text-anchor="middle" dominant-baseline="middle" >11</text><rect x="520" y="85" height="30" width="40" fill="#a0ffa0" /><line x1="520" y1="85" x2="560" y2="85" stroke="#000000" stroke-width="1" /><line x1="520" y1="115" x2="560" y2="115" stroke="#000000" stroke-width="1" /><line x1="560" y1="85" x2="560" y2="115" stroke="#000000" stroke-width="1" /><line x1="520" y1="85" x2="520" y2="115" stroke="#000000" stroke-width="1" /><text font-size="18" font-family="Courier New, monospace" x="540" y="101" text-anchor="middle" dominant-baseline="middle" >22</text><rect x="560" y="85" height="30" width="40" fill="#a0ffa0" /><line x1="560" y1="85" x2="600" y2="85" stroke="#000000" stroke-width="1" /><line x1="560" y1="115" x2="600" y2="115" stroke="#000000" stroke-width="1" /><line x1="600" y1="85" x2="600" y2="115" stroke="#000000" stroke-width="1" /><line x1="560" y1="85" x2="560" y2="115" stroke="#000000" stroke-width="1" /><text font-size="18" font-family="Courier New, monospace" x="580" y="101" text-anchor="middle" dominant-baseline="middle" >33</text><rect x="600" y="85" height="30" width="40" fill="#a0ffa0" /><line x1="600" y1="85" x2="640" y2="85" stroke="#000000" stroke-width="1" /><line x1="600" y1="115" x2="640" y2="115" stroke="#000000" stroke-width="1" /><line x1="640" y1="85" x2="640" y2="115" stroke="#000000" stroke-width="1" /><line x1="600" y1="85" x2="600" y2="115" stroke="#000000" stroke-width="1" /><text font-size="18" font-family="Courier New, monospace" x="620" y="101" text-anchor="middle" dominant-baseline="middle" >44</text></svg>